<svg width="17" height="19" viewBox="0 0 17 19" fill="none" xmlns="http://www.w3.org/2000/svg">
<path fill-rule="evenodd" clip-rule="evenodd" d="M15.2162 1.0529C10.3398 1.49903 7.06428 4.08677 4.88595 7.33161C3.06214 10.0483 2.01372 13.2206 1.46853 15.9552C2.29372 14.4014 3.10998 13.5173 4.02157 12.9489C4.61588 12.5783 5.22699 12.3572 5.84975 12.1628C6.03048 12.1064 6.21035 12.0527 6.39167 11.9986C6.84775 11.8625 7.31304 11.7236 7.82443 11.5318C10.6548 10.4704 12.0312 8.51717 12.446 7.54913C12.4151 7.53358 12.3758 7.5155 12.326 7.49457C12.2844 7.4771 12.2333 7.45725 12.1757 7.43487C11.9624 7.35196 11.6595 7.23426 11.4174 7.07332C10.9836 6.78509 11.0534 6.24258 11.3195 5.97187C12.345 4.929 13.2766 3.82682 14.0046 2.85864C14.5424 2.14346 14.9562 1.51839 15.2162 1.0529ZM16.2619 0.284601C16.4149 0.473816 16.4679 0.741571 16.3611 0.995064C16.1156 1.57739 15.549 2.46874 14.8039 3.45963C14.1131 4.37824 13.2482 5.40987 12.2933 6.40464C12.3455 6.42619 12.4004 6.44765 12.4588 6.47045C12.5369 6.50098 12.6212 6.53392 12.7134 6.57267C12.8486 6.62948 13.0167 6.70718 13.1586 6.8208C13.311 6.94285 13.4632 7.1314 13.4944 7.40211C13.5086 7.52514 13.4848 7.62928 13.4591 7.7026C13.0556 8.855 11.4813 11.2285 8.17555 12.4682C7.62967 12.6729 7.11376 12.8269 6.64734 12.9661C6.47358 13.018 6.30668 13.0678 6.14767 13.1174C5.54923 13.3042 5.03538 13.4952 4.5507 13.7974C3.59887 14.3909 2.66403 15.4749 1.58555 18.0673C1.42976 18.4418 1.0541 18.5904 0.731672 18.5201C0.397614 18.4474 0.112361 18.1346 0.167291 17.7091C0.574982 14.5506 1.67842 10.3154 4.05569 6.77423C6.44399 3.21662 10.1273 0.352098 15.6471 0.0174065C15.8858 0.00293318 16.1147 0.102591 16.2619 0.284601Z" fill="current"/>
</svg>
