<svg width="18" height="17" viewBox="0 0 18 17" fill="none" xmlns="http://www.w3.org/2000/svg">
<path fill-rule="evenodd" clip-rule="evenodd" d="M1.6954 1.61081C2.33957 0.398363 3.58971 0 5 0V2C3.91029 2 3.59843 2.29163 3.4616 2.54918C3.24907 2.9492 3.17197 3.76082 3.48058 5.30388C3.6319 6.06049 3.60882 6.74208 3.40962 7.33966C3.20827 7.94372 2.84755 8.39932 2.42644 8.72685C1.61994 9.35413 0.616421 9.5 0 9.5V7.5C0.383579 7.5 0.88006 7.39587 1.19856 7.14815C1.33995 7.03818 1.44798 6.90003 1.51225 6.70721C1.57868 6.50792 1.6181 6.18951 1.51942 5.69612C1.20403 4.11917 1.12693 2.68079 1.6954 1.61081Z" fill="current"/>
<path fill-rule="evenodd" clip-rule="evenodd" d="M3.3046 9.11081C2.66043 7.89836 1.41029 7.5 0 7.5V9.5C1.08971 9.5 1.40157 9.79163 1.5384 10.0492C1.75093 10.4492 1.82803 11.2608 1.51942 12.8039C1.3681 13.5605 1.39118 14.2421 1.59038 14.8397C1.79173 15.4437 2.15245 15.8993 2.57356 16.2269C3.38006 16.8541 4.38358 17 5 17V15C4.61642 15 4.11994 14.8959 3.80144 14.6481C3.66005 14.5382 3.55202 14.4 3.48775 14.2072C3.42132 14.0079 3.3819 13.6895 3.48058 13.1961C3.79597 11.6192 3.87307 10.1808 3.3046 9.11081Z" fill="current"/>
<path fill-rule="evenodd" clip-rule="evenodd" d="M16.3046 1.61081C15.6604 0.398363 14.4103 0 13 0V2C14.0897 2 14.4016 2.29163 14.5384 2.54918C14.7509 2.9492 14.828 3.76082 14.5194 5.30388C14.3681 6.06049 14.3912 6.74208 14.5904 7.33966C14.7917 7.94372 15.1524 8.39932 15.5736 8.72685C16.3801 9.35413 17.3836 9.5 18 9.5V7.5C17.6164 7.5 17.1199 7.39587 16.8014 7.14815C16.6601 7.03818 16.552 6.90003 16.4877 6.70721C16.4213 6.50792 16.3819 6.18951 16.4806 5.69612C16.796 4.11917 16.8731 2.68079 16.3046 1.61081Z" fill="current"/>
<path fill-rule="evenodd" clip-rule="evenodd" d="M14.6954 9.11081C15.3396 7.89836 16.5897 7.5 18 7.5V9.5C16.9103 9.5 16.5984 9.79163 16.4616 10.0492C16.2491 10.4492 16.172 11.2608 16.4806 12.8039C16.6319 13.5605 16.6088 14.2421 16.4096 14.8397C16.2083 15.4437 15.8476 15.8993 15.4264 16.2269C14.6199 16.8541 13.6164 17 13 17V15C13.3836 15 13.8801 14.8959 14.1986 14.6481C14.3399 14.5382 14.448 14.4 14.5123 14.2072C14.5787 14.0079 14.6181 13.6895 14.5194 13.1961C14.204 11.6192 14.1269 10.1808 14.6954 9.11081Z" fill="current"/>
</svg>
