<svg width="13" height="20" viewBox="0 0 13 20" fill="none" xmlns="http://www.w3.org/2000/svg">
<path fill-rule="evenodd" clip-rule="evenodd" d="M3 2C3.55228 2 4 2.44772 4 3C4 3.55228 3.55228 4 3 4C2.44772 4 2 3.55228 2 3C2 2.44772 2.44772 2 3 2ZM6 3C6 1.34315 4.65685 0 3 0C1.34315 0 0 1.34315 0 3C0 4.65685 1.34315 6 3 6C4.65685 6 6 4.65685 6 3Z" fill="current"/>
<path fill-rule="evenodd" clip-rule="evenodd" d="M3 16C3.55228 16 4 16.4477 4 17C4 17.5523 3.55228 18 3 18C2.44772 18 2 17.5523 2 17C2 16.4477 2.44772 16 3 16ZM6 17C6 15.3431 4.65685 14 3 14C1.34315 14 0 15.3431 0 17C0 18.6569 1.34315 20 3 20C4.65685 20 6 18.6569 6 17Z" fill="current"/>
<path fill-rule="evenodd" clip-rule="evenodd" d="M10 5C10.5523 5 11 5.44772 11 6C11 6.55228 10.5523 7 10 7C9.44772 7 9 6.55228 9 6C9 5.44772 9.44772 5 10 5ZM13 6C13 4.34315 11.6569 3 10 3C8.34315 3 7 4.34315 7 6C7 7.65685 8.34315 9 10 9C11.6569 9 13 7.65685 13 6Z" fill="current"/>
<path fill-rule="evenodd" clip-rule="evenodd" d="M2 15V5H4V11.7386C4.61981 11.3389 5.39437 11.0258 6.33826 10.8643C7.51691 10.6627 8.14181 10.2861 8.48319 9.8911C8.81946 9.50202 9 8.9569 9 8.16H11C11 9.2531 10.7491 10.328 9.99634 11.1989C9.24871 12.0639 8.12706 12.5873 6.67554 12.8357C4.4728 13.2125 4 14.5789 4 15H2Z" fill="current"/>
</svg>
