<svg width="24" height="24" viewBox="0 0 24 24" fill="none" xmlns="http://www.w3.org/2000/svg">
<path d="M5 20.6C5 20.2686 5.26863 20 5.6 20H18.4C18.7314 20 19 20.2686 19 20.6V21.4C19 21.7314 18.7314 22 18.4 22H5.6C5.26863 22 5 21.7314 5 21.4V20.6ZM17.6 2C17.2686 2 17 2.26863 17 2.6V4.4C17 4.73137 16.7314 5 16.4 5H15.6C15.2686 5 15 4.73137 15 4.4V2.6C15 2.26863 14.7314 2 14.4 2H13.6C13.2686 2 13 2.26863 13 2.6V4.4C13 4.73137 12.7314 5 12.4 5H11.6C11.2686 5 11 4.73137 11 4.4V2.6C11 2.26863 10.7314 2 10.4 2H9.6C9.26863 2 9 2.26863 9 2.6V4.4C9 4.73137 8.73137 5 8.4 5H7.6C7.26863 5 7 4.73137 7 4.4V2.6C7 2.26863 6.73137 2 6.4 2H5.6C5.26863 2 5 2.26863 5 2.6V7.4C5 7.73137 5.26863 8 5.6 8H6.4C6.73137 8 7 8.26863 7 8.6V17.4C7 17.7314 7.26863 18 7.6 18H16.4C16.7314 18 17 17.7314 17 17.4V8.6C17 8.26863 17.2686 8 17.6 8H18.4C18.7314 8 19 7.73137 19 7.4V2.6C19 2.26863 18.7314 2 18.4 2H17.6Z" fill="#40C6E4"/>
</svg>
