<svg width="19" height="19" viewBox="0 0 19 19" fill="none" xmlns="http://www.w3.org/2000/svg">
<path fill-rule="evenodd" clip-rule="evenodd" d="M5.90656 0.171227C7.30649 -0.13315 8.76431 -0.0302027 10.1076 0.46789C11.4508 0.965983 12.6233 1.83838 13.4864 2.98189C14.3494 4.12539 14.8669 5.49216 14.9776 6.92052C15.0203 7.47115 14.6085 7.95212 14.0578 7.99479C13.5072 8.03746 13.0262 7.62568 12.9836 7.07505C12.9024 6.02759 12.5229 5.02529 11.89 4.18672C11.2571 3.34815 10.3973 2.70839 9.41222 2.34312C8.42716 1.97785 7.35809 1.90236 6.33148 2.12557C5.30486 2.34878 4.36365 2.86135 3.61919 3.60266C2.87473 4.34396 2.35816 5.28298 2.13058 6.30864C1.90301 7.3343 1.97396 8.40367 2.33504 9.39028C2.69611 10.3769 3.33221 11.2394 4.16808 11.8759C5.00396 12.5123 6.00463 12.8961 7.05174 12.9817C7.60218 13.0267 8.01192 13.5094 7.96691 14.0599C7.92189 14.6103 7.43918 15.0201 6.88873 14.975C5.46086 14.8583 4.0963 14.335 2.95648 13.4671C1.81665 12.5992 0.949246 11.423 0.456868 10.0777C-0.0355099 8.73228 -0.132258 7.27404 0.178067 5.87542C0.488393 4.47679 1.19281 3.19631 2.20799 2.18544C3.22316 1.17457 4.50663 0.475603 5.90656 0.171227Z" fill="current"/>
<path fill-rule="evenodd" clip-rule="evenodd" d="M6.7929 6.79289C7.18342 6.40237 7.81658 6.40237 8.20711 6.79289L18.2071 16.7929C18.5976 17.1834 18.5976 17.8166 18.2071 18.2071C17.8166 18.5976 17.1834 18.5976 16.7929 18.2071L6.7929 8.20711C6.40237 7.81658 6.40237 7.18342 6.7929 6.79289Z" fill="current"/>
<path fill-rule="evenodd" clip-rule="evenodd" d="M6.81397 6.77243C7.20748 6.40139 7.82467 6.41046 8.20711 6.79289C8.32635 6.91214 8.44188 7.03235 8.55379 7.15343C9.96637 8.51709 13.2692 10.5269 17.2575 9.52986C17.7933 9.39591 18.3362 9.72167 18.4701 10.2575C18.6041 10.7933 18.2783 11.3362 17.7425 11.4701C15.1577 12.1163 12.8275 11.7387 10.9477 10.9893C12.0078 13.7509 11.8398 16.3881 11.4648 17.7631C11.3194 18.2959 10.7697 18.6101 10.2369 18.4648C9.70406 18.3194 9.38992 17.7697 9.53524 17.2369C9.95347 15.7034 10.0668 11.7607 7.10724 8.53521C6.9757 8.40642 6.85729 8.28215 6.75259 8.16436C6.39327 7.76013 6.42047 7.14347 6.81397 6.77243Z" fill="current"/>
</svg>
