<svg width="18" height="18" viewBox="0 0 18 18" fill="none" xmlns="http://www.w3.org/2000/svg">
<path fill-rule="evenodd" clip-rule="evenodd" d="M6.01279 0.659812C7.31939 0.375727 8.68002 0.471811 9.93373 0.936698C11.1874 1.40158 12.2818 2.21582 13.0873 3.28309C13.8928 4.35037 14.3758 5.62602 14.4791 6.95915C14.5004 7.23447 14.2945 7.47495 14.0192 7.49629C13.7439 7.51762 13.5034 7.31173 13.4821 7.03641C13.3935 5.89373 12.9795 4.80032 12.2891 3.88551C11.5987 2.97071 10.6607 2.27279 9.58605 1.87431C8.51145 1.47584 7.34519 1.39348 6.22525 1.63698C5.1053 1.88048 4.07853 2.43965 3.26639 3.24835C2.45425 4.05705 1.89071 5.08143 1.64245 6.20033C1.39419 7.31923 1.47159 8.48583 1.86549 9.56212C2.2594 10.6384 2.95332 11.5794 3.86518 12.2737C4.77704 12.968 5.86869 13.3866 7.01099 13.48C7.28621 13.5025 7.49108 13.7439 7.46857 14.0191C7.44606 14.2944 7.20471 14.4992 6.92948 14.4767C5.5968 14.3677 4.32322 13.8793 3.25938 13.0693C2.19554 12.2593 1.38596 11.1615 0.92641 9.90581C0.466858 8.65013 0.376559 7.2891 0.666196 5.98372C0.955833 4.67834 1.61329 3.48322 2.56079 2.53974C3.50829 1.59626 4.70619 0.943897 6.01279 0.659812Z" fill="current"/>
<path fill-rule="evenodd" clip-rule="evenodd" d="M7.14645 7.14645C7.34171 6.95118 7.65829 6.95118 7.85355 7.14645L17.8536 17.1464C18.0488 17.3417 18.0488 17.6583 17.8536 17.8536C17.6583 18.0488 17.3417 18.0488 17.1464 17.8536L7.14645 7.85355C6.95118 7.65829 6.95118 7.34171 7.14645 7.14645Z" fill="current"/>
<path fill-rule="evenodd" clip-rule="evenodd" d="M7.15699 7.13621C7.35374 6.9507 7.66234 6.95523 7.85356 7.14645C7.97029 7.26318 8.08331 7.38089 8.19271 7.49945C9.68437 8.94512 13.1597 11.0697 17.3787 10.0149C17.6466 9.94795 17.9181 10.1108 17.9851 10.3787C18.052 10.6466 17.8892 10.9181 17.6213 10.9851C14.5756 11.7465 11.8943 11.0158 9.9381 9.96882C11.5415 13.0288 11.3883 16.1432 10.9824 17.6316C10.9097 17.898 10.6349 18.055 10.3684 17.9824C10.102 17.9097 9.94496 17.6349 10.0176 17.3684C10.4688 15.7141 10.58 11.5739 7.46942 8.19033C7.34186 8.06583 7.22728 7.94579 7.1263 7.83218C6.94664 7.63007 6.96023 7.32173 7.15699 7.13621Z" fill="current"/>
</svg>
