<svg width="24" height="15" viewBox="0 0 24 15" fill="none" xmlns="http://www.w3.org/2000/svg">
<path fill-rule="evenodd" clip-rule="evenodd" d="M6.37165 2.66552C6.55638 2.87078 6.53974 3.18692 6.33449 3.37165L1.74743 7.5L6.33449 11.6284C6.53974 11.8131 6.55638 12.1292 6.37165 12.3345C6.18692 12.5397 5.87078 12.5564 5.66552 12.3717L0.871995 8.05747C0.540959 7.75954 0.54096 7.24046 0.871995 6.94253L5.66552 2.62836C5.87078 2.44363 6.18692 2.46027 6.37165 2.66552Z" fill="current"/>
<path fill-rule="evenodd" clip-rule="evenodd" d="M17.6284 2.66552C17.4436 2.87078 17.4603 3.18692 17.6655 3.37165L22.2526 7.5L17.6655 11.6284C17.4603 11.8131 17.4436 12.1292 17.6284 12.3345C17.8131 12.5397 18.1292 12.5564 18.3345 12.3717L23.128 8.05747C23.4591 7.75954 23.4591 7.24046 23.128 6.94253L18.3345 2.62836C18.1292 2.44363 17.8131 2.46027 17.6284 2.66552Z" fill="current"/>
<path fill-rule="evenodd" clip-rule="evenodd" d="M15.2095 0.546019C15.4603 0.661739 15.5697 0.958802 15.454 1.20953L9.45398 14.2095C9.33826 14.4603 9.0412 14.5697 8.79047 14.454C8.53974 14.3383 8.4303 14.0412 8.54602 13.7905L14.546 0.790469C14.6617 0.539743 14.9588 0.430299 15.2095 0.546019Z" fill="current"/>
</svg>
