<svg width="22" height="19" viewBox="0 0 22 19" fill="none" xmlns="http://www.w3.org/2000/svg">
<path fill-rule="evenodd" clip-rule="evenodd" d="M0.499992 2C0.499992 1.17157 1.17157 0.5 1.99999 0.5H20C20.8284 0.5 21.5 1.17157 21.5 2V17C21.5 17.8284 20.8284 18.5 20 18.5H1.99999C1.17157 18.5 0.499992 17.8284 0.499992 17V2ZM1.99999 1.5C1.72385 1.5 1.49999 1.72386 1.49999 2V17C1.49999 17.2761 1.72385 17.5 1.99999 17.5H20C20.2761 17.5 20.5 17.2761 20.5 17V2C20.5 1.72386 20.2761 1.5 20 1.5H1.99999Z" fill="current"/>
<path fill-rule="evenodd" clip-rule="evenodd" d="M0.499992 2C0.499992 1.17157 1.17157 0.5 1.99999 0.5H20C20.8284 0.5 21.5 1.17157 21.5 2V5C21.5 7.48528 19.4853 9.5 17 9.5H4.99999C2.51471 9.5 0.499992 7.48528 0.499992 5V2ZM1.99999 1.5C1.72385 1.5 1.49999 1.72386 1.49999 2V5C1.49999 6.933 3.067 8.5 4.99999 8.5H17C18.933 8.5 20.5 6.933 20.5 5V2C20.5 1.72386 20.2761 1.5 20 1.5H1.99999Z" fill="current"/>
</svg>
