<svg width="20" height="20" viewBox="0 0 20 20" fill="none" xmlns="http://www.w3.org/2000/svg">
<path fill-rule="evenodd" clip-rule="evenodd" d="M10 1.5C5.30558 1.5 1.5 5.30558 1.5 10C1.5 14.6944 5.30558 18.5 10 18.5C14.6944 18.5 18.5 14.6944 18.5 10C18.5 5.30558 14.6944 1.5 10 1.5ZM0.5 10C0.5 4.75329 4.75329 0.5 10 0.5C15.2467 0.5 19.5 4.75329 19.5 10C19.5 15.2467 15.2467 19.5 10 19.5C4.75329 19.5 0.5 15.2467 0.5 10Z" fill="black"/>
<path fill-rule="evenodd" clip-rule="evenodd" d="M10.733 5.56011C9.80535 5.40695 8.85299 5.54822 8.00971 5.96408C7.16643 6.37994 6.47459 7.0495 6.03136 7.87872C5.58813 8.70794 5.41578 9.65517 5.5385 10.5874C5.66123 11.5196 6.07287 12.3899 6.71562 13.0762C7.35836 13.7624 8.19992 14.2301 9.1221 14.4135C10.0443 14.597 11.0008 14.4869 11.8572 14.0989C12.7136 13.7108 13.427 13.0643 13.8971 12.25C14.0352 12.0109 14.341 11.9289 14.5801 12.067C14.8193 12.2051 14.9012 12.5109 14.7631 12.75C14.1886 13.7452 13.3166 14.5355 12.2699 15.0098C11.2231 15.484 10.0541 15.6185 8.92701 15.3943C7.7999 15.1701 6.77133 14.5985 5.98575 13.7598C5.20018 12.921 4.69706 11.8573 4.54706 10.7179C4.39706 9.57854 4.60771 8.42082 5.14944 7.40732C5.69116 6.39383 6.53674 5.57548 7.56742 5.06721C8.59809 4.55893 9.76209 4.38627 10.8959 4.57347C12.0298 4.76066 13.0765 5.29832 13.8891 6.11092C14.0844 6.30618 14.0844 6.62276 13.8891 6.81802C13.6938 7.01329 13.3772 7.01329 13.182 6.81802C12.5171 6.15317 11.6607 5.71327 10.733 5.56011Z" fill="black"/>
</svg>
