<svg width="21" height="15" viewBox="0 0 21 15" fill="none" xmlns="http://www.w3.org/2000/svg">
<path fill-rule="evenodd" clip-rule="evenodd" d="M7.5 1.76619C7.5 0.600245 8.77196 -0.119925 9.77174 0.479948L19.3281 6.21376C20.2991 6.79636 20.2991 8.20363 19.3281 8.78624L9.77174 14.52C8.77195 15.1199 7.5 14.3997 7.5 13.2338V12.5C7.5 12.2239 7.72386 12 8 12C8.27614 12 8.5 12.2239 8.5 12.5V13.2338C8.5 13.6225 8.92399 13.8625 9.25725 13.6626L18.8136 7.92874C19.1373 7.73454 19.1373 7.26545 18.8136 7.07125L9.25725 1.33744C8.92399 1.13748 8.5 1.37754 8.5 1.76619V2.5C8.5 2.77614 8.27614 3 8 3C7.72386 3 7.5 2.77614 7.5 2.5V1.76619Z" fill="current"/>
<path fill-rule="evenodd" clip-rule="evenodd" d="M0.5 1.76619C0.5 0.600246 1.77196 -0.119925 2.77174 0.479948L12.3281 6.21376C13.2991 6.79636 13.2991 8.20363 12.3281 8.78624L2.77174 14.52C1.77195 15.1199 0.5 14.3997 0.5 13.2338V1.76619ZM2.25725 1.33744C1.92399 1.13748 1.5 1.37754 1.5 1.76619V13.2338C1.5 13.6225 1.92399 13.8625 2.25725 13.6626L11.8136 7.92874C12.1373 7.73454 12.1373 7.26545 11.8136 7.07125L2.25725 1.33744Z" fill="current"/>
</svg>
