<svg width="21" height="16" viewBox="0 0 21 16" fill="none" xmlns="http://www.w3.org/2000/svg">
<path fill-rule="evenodd" clip-rule="evenodd" d="M0.5 2C0.5 1.17157 1.17157 0.5 2 0.5H19C19.8284 0.5 20.5 1.17157 20.5 2V10.7059C20.5 11.5343 19.8284 12.2059 19 12.2059H15.5458C15.3671 12.2059 15.2222 12.3507 15.2222 12.5294C15.2222 12.7081 15.3671 12.8529 15.5458 12.8529H16.0098C16.7408 12.8529 17.3333 13.4455 17.3333 14.1765C17.3333 14.9074 16.7408 15.5 16.0098 15.5H4.9902C4.25923 15.5 3.66667 14.9074 3.66667 14.1765C3.66667 13.4455 4.25923 12.8529 4.9902 12.8529H5.45425C5.63293 12.8529 5.77778 12.7081 5.77778 12.5294C5.77778 12.3507 5.63293 12.2059 5.45425 12.2059H2C1.17157 12.2059 0.5 11.5343 0.5 10.7059V2ZM6.77778 12.5294C6.77778 13.2604 6.18521 13.8529 5.45425 13.8529H4.9902C4.81152 13.8529 4.66667 13.9978 4.66667 14.1765C4.66667 14.3552 4.81152 14.5 4.9902 14.5H16.0098C16.1885 14.5 16.3333 14.3552 16.3333 14.1765C16.3333 13.9978 16.1885 13.8529 16.0098 13.8529H15.5458C14.8148 13.8529 14.2222 13.2604 14.2222 12.5294C14.2222 11.7984 14.8148 11.2059 15.5458 11.2059H19C19.2761 11.2059 19.5 10.982 19.5 10.7059V2C19.5 1.72386 19.2761 1.5 19 1.5H2C1.72386 1.5 1.5 1.72386 1.5 2V10.7059C1.5 10.982 1.72386 11.2059 2 11.2059H5.45425C6.18521 11.2059 6.77778 11.7984 6.77778 12.5294Z" fill="current"/>
</svg>
