<svg width="29" height="15" viewBox="0 0 29 15" fill="none" xmlns="http://www.w3.org/2000/svg">
<path fill-rule="evenodd" clip-rule="evenodd" d="M2 0C0.895431 0 0 0.89543 0 2V13C0 14.1046 0.89543 15 2 15H27C28.1046 15 29 14.1046 29 13V2C29 0.895431 28.1046 0 27 0H2ZM13.32 11.483C13.694 11.901 14.1817 12.11 14.783 12.11C15.2817 12.11 15.6777 11.9707 15.971 11.692C16.1918 11.4768 16.3294 11.2034 16.3841 10.8718C16.4007 10.8884 16.411 10.9114 16.411 10.9368V11.5C16.411 11.7761 16.6349 12 16.911 12H17.253C17.5291 12 17.753 11.7761 17.753 11.5V4.47C17.753 4.19386 17.5291 3.97 17.253 3.97H16.878C16.6019 3.97 16.378 4.19386 16.378 4.47V5.664L16.419 7.00793C16.42 7.03826 16.4065 7.06559 16.3848 7.08346C16.3307 6.75119 16.1928 6.4797 15.971 6.269C15.6777 5.983 15.2817 5.84 14.783 5.84C14.1743 5.84 13.6867 6.049 13.32 6.467C12.9533 6.885 12.77 7.44967 12.77 8.161V9.8C12.77 10.504 12.9533 11.065 13.32 11.483ZM16.081 10.614C15.8903 10.8193 15.619 10.922 15.267 10.922C14.915 10.922 14.64 10.8193 14.442 10.614C14.244 10.4087 14.145 10.1153 14.145 9.734V8.216C14.145 7.83467 14.244 7.54133 14.442 7.336C14.64 7.13067 14.915 7.028 15.267 7.028C15.619 7.028 15.8903 7.13433 16.081 7.347C16.279 7.55233 16.378 7.842 16.378 8.216V9.734C16.378 10.108 16.279 10.4013 16.081 10.614ZM20.1357 8.508C20.1357 8.78414 20.3596 9.008 20.6357 9.008H23.1557C23.4318 9.008 23.6557 8.78414 23.6557 8.508V8.232C23.6557 7.95586 23.4318 7.732 23.1557 7.732H20.6357C20.3596 7.732 20.1357 7.95586 20.1357 8.232V8.508Z" fill="#EC4040"/>
</svg>
