<svg width="18" height="18" viewBox="0 0 18 18" fill="none" xmlns="http://www.w3.org/2000/svg">
<path fill-rule="evenodd" clip-rule="evenodd" d="M0.5 7.8C0.5 6.41929 1.61929 5.3 3 5.3H8C8.27614 5.3 8.5 5.52386 8.5 5.8C8.5 6.07615 8.27614 6.3 8 6.3H3C2.17157 6.3 1.5 6.97158 1.5 7.8V15C1.5 15.8284 2.17157 16.5 3 16.5H10.2C11.0284 16.5 11.7 15.8284 11.7 15V11.9793C11.7 11.7032 11.9239 11.4793 12.2 11.4793C12.4761 11.4793 12.7 11.7032 12.7 11.9793V15C12.7 16.3807 11.5807 17.5 10.2 17.5H3C1.61929 17.5 0.5 16.3807 0.5 15V7.8Z" fill="current"/>
<path fill-rule="evenodd" clip-rule="evenodd" d="M17.3439 0.637025C17.1434 0.447109 16.8269 0.455663 16.637 0.656129L6.89789 10.9363C6.70798 11.1368 6.71653 11.4533 6.917 11.6432C7.11747 11.8331 7.43393 11.8245 7.62385 11.6241L17.363 1.34387C17.5529 1.14341 17.5443 0.82694 17.3439 0.637025Z" fill="current"/>
<path fill-rule="evenodd" clip-rule="evenodd" d="M17.3331 0.627127C17.1314 0.446947 16.823 0.459797 16.637 0.65613C16.555 0.742749 16.4755 0.830079 16.3986 0.918037C15.3815 1.957 13.0219 3.47175 10.1711 2.71945C9.90405 2.64899 9.63049 2.80832 9.56003 3.07532C9.48957 3.34233 9.6489 3.61589 9.9159 3.68635C11.8884 4.20688 13.643 3.80143 14.9898 3.13405C14.0452 5.28915 14.1576 7.41776 14.4289 8.46808C14.498 8.73544 14.7708 8.89618 15.0381 8.8271C15.3055 8.75802 15.4662 8.48528 15.3971 8.21792C15.0894 7.02664 15.0145 4.03125 17.141 1.58825C17.2308 1.49566 17.3114 1.40645 17.3825 1.32207C17.5567 1.1152 17.5348 0.807307 17.3331 0.627127Z" fill="current"/>
</svg>
