<svg width="21" height="16" viewBox="0 0 21 16" fill="none" xmlns="http://www.w3.org/2000/svg">
<path d="M2 16C1.45 16 0.979333 15.8043 0.588 15.413C0.196 15.021 0 14.55 0 14V2C0 1.45 0.196 0.979333 0.588 0.588C0.979333 0.196 1.45 0 2 0H7.175C7.44167 0 7.696 0.0500001 7.938 0.15C8.17933 0.25 8.39167 0.391666 8.575 0.575L10 2H18C18.55 2 19.021 2.196 19.413 2.588C19.8043 2.97933 20 3.45 20 4H4C3.45 4 2.97933 4.19567 2.588 4.587C2.196 4.979 2 5.45 2 6V14L3.975 7.425C4.10833 6.99167 4.35433 6.64567 4.713 6.387C5.071 6.129 5.46667 6 5.9 6H18.8C19.4833 6 20.021 6.27067 20.413 6.812C20.8043 7.354 20.9083 7.94167 20.725 8.575L18.925 14.575C18.7917 15.0083 18.546 15.3543 18.188 15.613C17.8293 15.871 17.4333 16 17 16H2Z" fill="#65DB94"/>
</svg>
