<svg width="20" height="20" viewBox="0 0 20 20" fill="none" xmlns="http://www.w3.org/2000/svg">
<path d="M0.600007 8.59001L6.38001 2.80001L8.07001 4.50001C7.83001 5.35001 8.22001 6.28001 9.00001 6.73001V12.27C8.40001 12.61 8.00001 13.26 8.00001 14C8.00001 14.5304 8.21072 15.0391 8.58579 15.4142C8.96087 15.7893 9.46957 16 10 16C10.5304 16 11.0391 15.7893 11.4142 15.4142C11.7893 15.0391 12 14.5304 12 14C12 13.26 11.6 12.61 11 12.27V7.41001L13.07 9.50001C13 9.65001 13 9.82001 13 10C13 10.5304 13.2107 11.0391 13.5858 11.4142C13.9609 11.7893 14.4696 12 15 12C15.5304 12 16.0391 11.7893 16.4142 11.4142C16.7893 11.0391 17 10.5304 17 10C17 9.46957 16.7893 8.96087 16.4142 8.58579C16.0391 8.21072 15.5304 8.00001 15 8.00001C14.82 8.00001 14.65 8.00001 14.5 8.07001L11.93 5.50001C12.0542 5.03684 12.006 4.54436 11.7945 4.114C11.583 3.68364 11.2225 3.34466 10.78 3.16001C10.35 3.00001 9.90001 2.96001 9.50001 3.07001L7.80001 1.38001L8.59001 0.600007C9.37001 -0.189993 10.63 -0.189993 11.41 0.600007L19.4 8.59001C20.19 9.37001 20.19 10.63 19.4 11.41L11.41 19.4C10.63 20.19 9.37001 20.19 8.59001 19.4L0.600007 11.41C-0.189993 10.63 -0.189993 9.37001 0.600007 8.59001Z" fill="#F24439"/>
</svg>
