<svg width="19" height="19" viewBox="0 0 19 19" fill="none" xmlns="http://www.w3.org/2000/svg">
<path d="M6.09283 14.6891L6.05274 14.5693L7.01477 13.6513L7.21519 13.6912L7.49578 13.9706L7.05485 14.729L6.09283 14.6891Z" fill="current"/>
<path fill-rule="evenodd" clip-rule="evenodd" d="M2.31697 0.152988C2.41533 0.0550314 2.54872 0 2.68782 0V0.522334L2.31697 0.152988ZM2.92041 1.05754C2.9127 1.0677 2.90478 1.0783 2.89666 1.08933C2.79131 1.2324 2.65538 1.44489 2.53888 1.71563C2.30821 2.2517 2.15223 3.01598 2.46423 3.9482C2.52705 4.1359 2.478 4.34283 2.33754 4.48273C1.74044 5.07741 1.22405 6.37037 1.13814 7.82487C1.05293 9.26751 1.40077 10.7113 2.33754 11.6443C3.33624 12.639 4.50723 13.1417 5.43988 13.3951C5.90499 13.5214 6.30583 13.5843 6.58796 13.6155C6.72882 13.6311 6.83947 13.6387 6.91301 13.6424C6.94976 13.6443 6.97719 13.6452 6.99441 13.6456L7.01248 13.6459L7.01455 13.646C7.01455 13.646 7.01455 13.646 7.01455 14.1683C7.01455 14.6906 7.01413 14.6906 7.01413 14.6906L7.01248 14.6906L7.00935 14.6906L6.99994 14.6905L6.96884 14.69C6.94276 14.6893 6.90609 14.6881 6.85975 14.6858C6.76709 14.6811 6.63549 14.6719 6.47213 14.6538C6.35281 14.6406 6.21622 14.6226 6.06521 14.5981C5.80322 14.5557 5.49783 14.4936 5.16389 14.4029C4.11345 14.1176 2.76052 13.543 1.59585 12.383C0.36926 11.1614 -0.00403012 9.37328 0.0910453 7.76353C0.177161 6.30547 0.65538 4.86241 1.38054 3.98149C1.09433 2.88896 1.29008 1.96575 1.57479 1.30411C1.72871 0.946417 1.90827 0.665146 2.05081 0.471551C2.12229 0.374473 2.18511 0.298566 2.23178 0.245204C2.25513 0.218497 2.27451 0.197354 2.289 0.181947L2.30697 0.16313L2.31301 0.156969L2.31526 0.154705L2.31618 0.153778L2.31697 0.152988C2.31697 0.152988 2.31697 0.152988 2.68782 0.522334C2.68782 0 2.68782 0 2.68782 0L2.68959 2.45955e-06L2.69215 1.27025e-05L2.69965 7.33817e-05L2.72386 0.00047407C2.74402 0.000910438 2.7721 0.00174616 2.80741 0.00334427C2.87797 0.0065386 2.97761 0.0127905 3.10056 0.0250363C3.34595 0.0494758 3.68712 0.0980776 4.07698 0.195148C4.76844 0.367315 5.64168 0.699183 6.39935 1.34529C7.23605 1.03409 8.41798 0.897761 9.53848 0.897761C10.659 0.897761 11.8409 1.0341 12.6776 1.34529C13.4353 0.699183 14.3085 0.367315 15 0.195148C15.3898 0.0980776 15.731 0.0494758 15.9764 0.0250363C16.0993 0.0127905 16.199 0.0065386 16.2695 0.00334427C16.3048 0.00174616 16.3329 0.000910438 16.3531 0.00047407L16.3773 7.33817e-05L16.3848 1.27025e-05L16.3874 2.45955e-06L16.3888 1.24534e-07C16.3888 1.24534e-07 16.3891 0 16.3891 0.522334C16.76 0.152988 16.7604 0.153366 16.7604 0.153366L16.7617 0.154705L16.7639 0.156969L16.77 0.16313L16.788 0.181947C16.8024 0.197354 16.8218 0.218497 16.8452 0.245204C16.8918 0.298566 16.9547 0.374473 17.0261 0.471551C17.1687 0.665146 17.3482 0.946417 17.5022 1.30411C17.7869 1.96575 17.9826 2.88896 17.6964 3.98149C18.4216 4.86241 18.8998 6.30547 18.9859 7.76353C19.081 9.37328 18.7077 11.1614 17.4811 12.383C16.3164 13.543 14.9635 14.1176 13.9131 14.4029C13.5791 14.4936 13.2737 14.5557 13.0117 14.5981C13.3929 15.3413 13.4883 16.1841 13.4883 16.8616C13.4883 17.3438 13.44 17.7753 13.392 18.0857C13.368 18.2414 13.3438 18.3681 13.3253 18.4571C13.316 18.5017 13.3082 18.5369 13.3024 18.5618L13.2955 18.5912L13.2934 18.5998L13.2927 18.6026L13.2924 18.6039C13.2924 18.6039 13.2923 18.6042 12.7835 18.4776L13.2924 18.6039C13.2221 18.8838 12.9373 19.0543 12.6563 18.9843C12.3755 18.9144 12.2047 18.6312 12.2746 18.3515M12.2746 18.3515L12.2756 18.3474L12.2801 18.3281C12.2842 18.3102 12.2905 18.2823 12.2981 18.2455C12.3134 18.1718 12.3343 18.0628 12.3553 17.9268C12.3975 17.6536 12.4394 17.2771 12.4394 16.8616C12.4394 16.0044 12.2617 15.1055 11.6916 14.5377C11.5416 14.3883 11.4967 14.1636 11.5779 13.9684C11.6589 13.7735 11.8497 13.6464 12.0614 13.646L12.0645 13.6459L12.0825 13.6456C12.0998 13.6452 12.1272 13.6443 12.1639 13.6424C12.2375 13.6387 12.3481 13.6311 12.489 13.6155C12.7711 13.5843 13.172 13.5214 13.6371 13.3951C14.5697 13.1417 15.7407 12.639 16.7394 11.6443C17.6762 10.7113 18.024 9.26751 17.9388 7.82487C17.8529 6.37037 17.3365 5.07741 16.7394 4.48273C16.5989 4.34283 16.5499 4.1359 16.6127 3.9482C16.9247 3.01598 16.7687 2.2517 16.5381 1.71563C16.4216 1.44489 16.2856 1.2324 16.1803 1.08933C16.1722 1.0783 16.1642 1.0677 16.1565 1.05754C16.1328 1.05954 16.1075 1.06185 16.0808 1.06452C15.8754 1.08497 15.5856 1.12614 15.2544 1.20862C14.5858 1.37509 13.7843 1.70071 13.1544 2.3281C12.9947 2.48708 12.7509 2.52649 12.549 2.42594C11.9404 2.12287 10.7797 1.94243 9.53848 1.94243C8.29726 1.94243 7.13657 2.12287 6.52797 2.42594C6.32606 2.52649 6.08221 2.48708 5.92258 2.3281C5.29265 1.70071 4.49113 1.37509 3.82258 1.20862C3.49132 1.12614 3.20151 1.08497 2.99619 1.06452C2.96941 1.06185 2.94411 1.05954 2.92041 1.05754M16.3891 0.522334L16.3888 1.24534e-07C16.5279 1.24534e-07 16.662 0.0554093 16.7604 0.153366L16.3891 0.522334ZM7.49908 13.9684C7.58025 14.1636 7.53538 14.3883 7.38539 14.5377C6.81527 15.1055 6.6376 16.0044 6.6376 16.8616C6.6376 17.0103 6.64296 17.1539 6.65177 17.2897C6.64824 17.2497 6.64001 17.2095 6.62671 17.1698C6.53512 16.8961 6.23811 16.7482 5.96332 16.8394C5.84097 16.88 5.71604 16.9145 5.58915 16.9433C5.58885 16.9162 5.58869 16.889 5.58869 16.8616C5.58869 16.1841 5.68402 15.3413 6.06521 14.5981M5.67127 17.9938C4.64347 18.1958 3.57315 18.0967 2.66159 17.875C2.10819 17.7405 1.59906 17.5575 1.17513 17.3568C0.760001 17.1604 0.394291 16.932 0.153609 16.6923C-0.0512028 16.4883 -0.0512028 16.1576 0.153609 15.9536C0.35842 15.7496 0.690485 15.7496 0.895296 15.9536C1.01517 16.073 1.25991 16.2404 1.62525 16.4133C1.98178 16.582 2.42314 16.7417 2.91034 16.8602C3.76776 17.0686 4.72417 17.1392 5.58915 16.9433M5.67127 17.9938C5.6758 18.0255 5.68037 18.0561 5.68493 18.0857C5.70899 18.2414 5.73318 18.3681 5.75168 18.4571C5.76094 18.5017 5.76879 18.5369 5.77452 18.5618L5.78143 18.5912L5.78353 18.5998L5.78421 18.6026L5.78455 18.6039C5.78455 18.6039 5.78463 18.6042 6.29343 18.4776L5.78455 18.6039C5.8548 18.8838 6.13963 19.0543 6.42063 18.9843C6.70154 18.9144 6.87236 18.6309 6.80229 18.3511M6.80229 18.3511L6.80137 18.3474L6.79684 18.3281C6.79271 18.3102 6.78648 18.2823 6.77883 18.2455C6.76353 18.1718 6.74265 18.0628 6.72164 17.9268C6.69537 17.7567 6.66923 17.5465 6.65324 17.3118C6.65291 17.3045 6.65242 17.2971 6.65177 17.2897M7.49908 13.9684C7.41795 13.7733 7.22653 13.6461 7.01455 13.646Z" fill="current"/>
<path d="M5.61181 17.5231C5.57173 17.1639 5.57173 16.6849 5.61181 16.605L6.4135 16.4454L6.65401 16.4055C6.64065 16.4986 6.62194 16.8126 6.65401 17.3235C6.68608 17.8345 6.77426 18.1618 6.81435 18.4412C6.45359 18.3747 5.72405 18.2097 5.69198 18.0819C5.6519 17.9223 5.6519 17.8824 5.61181 17.5231Z" fill="current"/>
</svg>
