<svg width="24" height="14" viewBox="0 0 24 14" fill="none" xmlns="http://www.w3.org/2000/svg">
<rect width="24" height="14" rx="2" fill="#3F51B5"/>
<path d="M4 6.07692C4 5.90699 4.18851 5.76923 4.42105 5.76923H4.63158C4.86412 5.76923 5.05263 5.90699 5.05263 6.07692V7.92308C5.05263 8.09301 4.86412 8.23077 4.63158 8.23077H4.42105C4.18851 8.23077 4 8.09301 4 7.92308V6.07692Z" fill="#ECEFF1"/>
<path d="M5.89474 5.30769C5.89474 5.13776 6.08325 5 6.31579 5H7.78947C8.02201 5 8.21053 5.13776 8.21053 5.30769V8.69231C8.21053 8.86224 8.02201 9 7.78947 9H6.31579C6.08325 9 5.89474 8.86224 5.89474 8.69231V5.30769Z" fill="#ECEFF1"/>
<path d="M9.05263 6.53846C9.05263 6.36853 9.24114 6.23077 9.47368 6.23077H14.5263C14.7589 6.23077 14.9474 6.36853 14.9474 6.53846V7.46154C14.9474 7.63147 14.7589 7.76923 14.5263 7.76923H9.47368C9.24114 7.76923 9.05263 7.63147 9.05263 7.46154V6.53846Z" fill="#ECEFF1"/>
<path d="M15.7895 5.30769C15.7895 5.13776 15.978 5 16.2105 5H17.6842C17.9168 5 18.1053 5.13776 18.1053 5.30769V8.69231C18.1053 8.86224 17.9168 9 17.6842 9H16.2105C15.978 9 15.7895 8.86224 15.7895 8.69231V5.30769Z" fill="#ECEFF1"/>
<path d="M18.9474 6.07692C18.9474 5.90699 19.1359 5.76923 19.3684 5.76923H19.5789C19.8115 5.76923 20 5.90699 20 6.07692V7.92308C20 8.09301 19.8115 8.23077 19.5789 8.23077H19.3684C19.1359 8.23077 18.9474 8.09301 18.9474 7.92308V6.07692Z" fill="#ECEFF1"/>
</svg>
