<svg width="20" height="19" viewBox="0 0 20 19" fill="none" xmlns="http://www.w3.org/2000/svg">
<path fill-rule="evenodd" clip-rule="evenodd" d="M8.99999 16V17C8.99999 18.1046 8.10456 19 6.99999 19H3.99999C2.89542 19 1.99999 18.1046 1.99999 17V10.993C0.437439 10.8604 -0.263028 8.89136 0.942524 7.80637L8.66206 0.858779C9.42268 0.17423 10.5773 0.174231 11.3379 0.858779L19.0575 7.80637C20.263 8.89137 19.5625 10.8604 18 10.993V17C18 18.1046 17.1046 19 16 19H13C11.8954 19 11 18.1046 11 17V16H8.99999ZM7.99999 17C7.99999 17.5523 7.55228 18 6.99999 18H3.99999C3.44771 18 2.99999 17.5523 2.99999 17V10.832C2.99999 10.3725 2.62751 10 2.16804 10C1.40556 10 1.04475 9.05973 1.61149 8.54966L9.33103 1.60207C9.71133 1.2598 10.2887 1.2598 10.669 1.60207L18.3885 8.54966C18.9552 9.05973 18.5944 10 17.832 10C17.3725 10 17 10.3725 17 10.832V17C17 17.5523 16.5523 18 16 18H13C12.4477 18 12 17.5523 12 17V16C12 15.4477 11.5523 15 11 15H8.99999C8.44771 15 7.99999 15.4477 7.99999 16V17Z" fill="current"/>
</svg>
