<svg width="20" height="20" viewBox="0 0 20 20" fill="none" xmlns="http://www.w3.org/2000/svg">
<path fill-rule="evenodd" clip-rule="evenodd" d="M10 1.5C5.30558 1.5 1.5 5.30558 1.5 10C1.5 14.6944 5.30558 18.5 10 18.5C14.6944 18.5 18.5 14.6944 18.5 10C18.5 5.30558 14.6944 1.5 10 1.5ZM0.5 10C0.5 4.75329 4.75329 0.5 10 0.5C15.2467 0.5 19.5 4.75329 19.5 10C19.5 15.2467 15.2467 19.5 10 19.5C4.75329 19.5 0.5 15.2467 0.5 10Z" fill="black"/>
<path fill-rule="evenodd" clip-rule="evenodd" d="M10 7.5C10.2761 7.5 10.5 7.72386 10.5 8L10.5 15C10.5 15.2761 10.2761 15.5 10 15.5C9.72386 15.5 9.5 15.2761 9.5 15L9.5 8C9.5 7.72386 9.72386 7.5 10 7.5Z" fill="black"/>
<path fill-rule="evenodd" clip-rule="evenodd" d="M10 4.5C10.2761 4.5 10.5 4.72386 10.5 5V5.1C10.5 5.37614 10.2761 5.6 10 5.6C9.72386 5.6 9.5 5.37614 9.5 5.1V5C9.5 4.72386 9.72386 4.5 10 4.5Z" fill="black"/>
</svg>
