<svg width="19" height="16" viewBox="0 0 19 16" fill="none" xmlns="http://www.w3.org/2000/svg">
<path d="M0.5 16H17.4728C17.7489 16 17.9728 15.7761 17.9728 15.5V14.7222C17.9728 14.4461 17.7489 14.2222 17.4728 14.2222H0.5M16.7 4.44444H15.4C15.1239 4.44444 14.9 4.22059 14.9 3.94444V2.27778C14.9 2.00164 15.1239 1.77778 15.4 1.77778H16.7M16.7 0H2.8C2.52386 0 2.3 0.223858 2.3 0.5V8.88889C2.3 9.83188 2.67929 10.7363 3.35442 11.403C4.02955 12.0698 4.94522 12.4444 5.9 12.4444H11.3C12.2548 12.4444 13.1705 12.0698 13.8456 11.403C14.5207 10.7363 14.9 9.83188 14.9 8.88889V6.72222C14.9 6.44608 15.1239 6.22222 15.4 6.22222H16.7C17.1774 6.22222 17.6352 6.03492 17.9728 5.70152C18.3104 5.36812 18.5 4.91594 18.5 4.44444V1.77778C18.5 1.30628 18.3104 0.854097 17.9728 0.520699C17.6352 0.187301 17.1774 0 16.7 0Z" fill="#F26960"/>
</svg>
