<svg width="21" height="21" viewBox="0 0 21 21" fill="none" xmlns="http://www.w3.org/2000/svg">
<path fill-rule="evenodd" clip-rule="evenodd" d="M1.64062 0C0.734533 0 0 0.734533 0 1.64062V19.3594C0 20.2655 0.734533 21 1.64062 21H19.3594C20.2655 21 21 20.2655 21 19.3594V1.64062C21 0.734533 20.2655 0 19.3594 0H1.64062ZM7.12868 16.5765L5.52169 17.5491L5.52161 17.5489C5.98681 18.5357 6.90318 19.3533 8.48187 19.3533C10.23 19.3533 11.4281 18.4229 11.4281 16.3789V9.64104H9.45468V16.351C9.45468 17.3377 9.04575 17.5913 8.39729 17.5913C7.72078 17.5913 7.43876 17.1262 7.12868 16.5765ZM14.1068 16.4073L12.5 17.3376L12.4999 17.3377C13.0778 18.4796 14.262 19.3535 16.0944 19.3535C17.9693 19.3535 19.3648 18.381 19.3648 16.6047C19.3648 14.9555 18.4204 14.2226 16.7428 13.5036L16.2495 13.2922C15.4037 12.9257 15.0372 12.6859 15.0372 12.0939C15.0372 11.6146 15.4037 11.2481 15.9817 11.2481C16.5456 11.2481 16.912 11.4877 17.2504 12.0939L18.787 11.107C18.1386 9.96523 17.2364 9.52817 15.9818 9.52817C14.2197 9.52817 13.092 10.6559 13.092 12.1361C13.092 13.7431 14.0365 14.5043 15.4603 15.1103L15.9535 15.322C16.8557 15.7165 17.3914 15.9562 17.3914 16.6328C17.3914 17.1967 16.87 17.6055 16.0522 17.6055C15.0796 17.6055 14.5299 17.0981 14.1068 16.4073Z" fill="#F7DF1E"/>
</svg>
