<svg width="21" height="16" viewBox="0 0 21 16" fill="none" xmlns="http://www.w3.org/2000/svg">
<path d="M4.375 0H6.125V1.77778H4.375V6.22222C4.375 6.69372 4.19063 7.1459 3.86244 7.4793C3.53425 7.8127 3.08913 8 2.625 8C3.08913 8 3.53425 8.1873 3.86244 8.5207C4.19063 8.8541 4.375 9.30628 4.375 9.77778V14.2222H6.125V16H4.375C3.43875 15.76 2.625 15.2 2.625 14.2222V10.6667C2.625 10.1952 2.44063 9.74299 2.11244 9.40959C1.78425 9.07619 1.33913 8.88889 0.875 8.88889H0V7.11111H0.875C1.33913 7.11111 1.78425 6.92381 2.11244 6.59041C2.44063 6.25701 2.625 5.80483 2.625 5.33333V1.77778C2.625 1.30628 2.80937 0.854097 3.13756 0.520699C3.46575 0.187301 3.91087 0 4.375 0ZM16.625 0C17.0891 0 17.5342 0.187301 17.8624 0.520699C18.1906 0.854097 18.375 1.30628 18.375 1.77778V5.33333C18.375 5.80483 18.5594 6.25701 18.8876 6.59041C19.2158 6.92381 19.6609 7.11111 20.125 7.11111H21V8.88889H20.125C19.6609 8.88889 19.2158 9.07619 18.8876 9.40959C18.5594 9.74299 18.375 10.1952 18.375 10.6667V14.2222C18.375 14.6937 18.1906 15.1459 17.8624 15.4793C17.5342 15.8127 17.0891 16 16.625 16H14.875V14.2222H16.625V9.77778C16.625 9.30628 16.8094 8.8541 17.1376 8.5207C17.4658 8.1873 17.9109 8 18.375 8C17.9109 8 17.4658 7.8127 17.1376 7.4793C16.8094 7.1459 16.625 6.69372 16.625 6.22222V1.77778H14.875V0H16.625ZM10.5 10.6667C10.7321 10.6667 10.9546 10.7603 11.1187 10.927C11.2828 11.0937 11.375 11.3198 11.375 11.5556C11.375 11.7913 11.2828 12.0174 11.1187 12.1841C10.9546 12.3508 10.7321 12.4444 10.5 12.4444C10.2679 12.4444 10.0454 12.3508 9.88128 12.1841C9.71719 12.0174 9.625 11.7913 9.625 11.5556C9.625 11.3198 9.71719 11.0937 9.88128 10.927C10.0454 10.7603 10.2679 10.6667 10.5 10.6667ZM7 10.6667C7.23206 10.6667 7.45462 10.7603 7.61872 10.927C7.78281 11.0937 7.875 11.3198 7.875 11.5556C7.875 11.7913 7.78281 12.0174 7.61872 12.1841C7.45462 12.3508 7.23206 12.4444 7 12.4444C6.76794 12.4444 6.54538 12.3508 6.38128 12.1841C6.21719 12.0174 6.125 11.7913 6.125 11.5556C6.125 11.3198 6.21719 11.0937 6.38128 10.927C6.54538 10.7603 6.76794 10.6667 7 10.6667ZM14 10.6667C14.2321 10.6667 14.4546 10.7603 14.6187 10.927C14.7828 11.0937 14.875 11.3198 14.875 11.5556C14.875 11.7913 14.7828 12.0174 14.6187 12.1841C14.4546 12.3508 14.2321 12.4444 14 12.4444C13.7679 12.4444 13.5454 12.3508 13.3813 12.1841C13.2172 12.0174 13.125 11.7913 13.125 11.5556C13.125 11.3198 13.2172 11.0937 13.3813 10.927C13.5454 10.7603 13.7679 10.6667 14 10.6667Z" fill="#ECBC40"/>
</svg>
