<svg width="22" height="23" viewBox="0 0 22 23" fill="none" xmlns="http://www.w3.org/2000/svg">
<path d="M1 8L3 2L3.5 1H16.5L17.5 1.5L21 7.5V21L20.5 22H1.5L1 21V8Z" fill="#F48014"/>
<path d="M2.14051 20.876L2.89051 14.876C2.95306 14.3755 3.37846 14 3.88278 14H17.2988C17.4221 14 17.5348 13.9303 17.59 13.8201C17.727 13.5459 18.1324 13.5958 18.1989 13.895L19.8915 21.5119C19.9472 21.7624 19.7566 22 19.5 22H3.13278C2.53129 22 2.0659 21.4728 2.14051 20.876Z" fill="#C15416"/>
<path fill-rule="evenodd" clip-rule="evenodd" d="M1 7.5C1.27614 7.5 1.5 7.72386 1.5 8V9.08333C1.5 9.35948 1.27614 9.58333 1 9.58333C0.723858 9.58333 0.5 9.35948 0.5 9.08333V8C0.5 7.72386 0.723858 7.5 1 7.5ZM21 7.5C21.2761 7.5 21.5 7.72386 21.5 8V9.08333C21.5 9.35947 21.2761 9.58333 21 9.58333C20.7239 9.58333 20.5 9.35947 20.5 9.08333V8C20.5 7.72386 20.7239 7.5 21 7.5ZM21 10.75C21.2761 10.75 21.5 10.9739 21.5 11.25V13.4167C21.5 13.6928 21.2761 13.9167 21 13.9167C20.7239 13.9167 20.5 13.6928 20.5 13.4167V11.25C20.5 10.9739 20.7239 10.75 21 10.75ZM1 10.75C1.27614 10.75 1.5 10.9739 1.5 11.25V13.4167C1.5 13.6928 1.27614 13.9167 1 13.9167C0.723858 13.9167 0.5 13.6928 0.5 13.4167V11.25C0.5 10.9739 0.723858 10.75 1 10.75ZM21 15.0833C21.2761 15.0833 21.5 15.3072 21.5 15.5833V17.75C21.5 18.0261 21.2761 18.25 21 18.25C20.7239 18.25 20.5 18.0261 20.5 17.75V15.5833C20.5 15.3072 20.7239 15.0833 21 15.0833ZM1 15.0833C1.27614 15.0833 1.5 15.3072 1.5 15.5833V17.75C1.5 18.0261 1.27614 18.25 1 18.25C0.723858 18.25 0.5 18.0261 0.5 17.75V15.5833C0.5 15.3072 0.723858 15.0833 1 15.0833ZM21 19.4167C21.2761 19.4167 21.5 19.6405 21.5 19.9167V21C21.5 21.8284 20.8284 22.5 20 22.5H18.875C18.5989 22.5 18.375 22.2761 18.375 22C18.375 21.7239 18.5989 21.5 18.875 21.5H20C20.2761 21.5 20.5 21.2761 20.5 21V19.9167C20.5 19.6405 20.7239 19.4167 21 19.4167ZM1 19.4167C1.27614 19.4167 1.5 19.6405 1.5 19.9167V21C1.5 21.2761 1.72386 21.5 2 21.5H3.125C3.40114 21.5 3.625 21.7239 3.625 22C3.625 22.2761 3.40114 22.5 3.125 22.5H2C1.17157 22.5 0.5 21.8284 0.5 21V19.9167C0.5 19.6405 0.723858 19.4167 1 19.4167ZM4.875 22C4.875 21.7239 5.09886 21.5 5.375 21.5H7.625C7.90114 21.5 8.125 21.7239 8.125 22C8.125 22.2761 7.90114 22.5 7.625 22.5H5.375C5.09886 22.5 4.875 22.2761 4.875 22ZM9.375 22C9.375 21.7239 9.59886 21.5 9.875 21.5H12.125C12.4011 21.5 12.625 21.7239 12.625 22C12.625 22.2761 12.4011 22.5 12.125 22.5H9.875C9.59886 22.5 9.375 22.2761 9.375 22ZM13.875 22C13.875 21.7239 14.0989 21.5 14.375 21.5H16.625C16.9011 21.5 17.125 21.7239 17.125 22C17.125 22.2761 16.9011 22.5 16.625 22.5H14.375C14.0989 22.5 13.875 22.2761 13.875 22Z" fill="#750D0D"/>
<path d="M3 2C3 1.44772 3.44772 1 4 1H17C17.5523 1 18 1.44772 18 2V13C18 13.5523 17.5523 14 17 14H4C3.44772 14 3 13.5523 3 13V2Z" fill="#EDF0D7"/>
<path fill-rule="evenodd" clip-rule="evenodd" d="M4 1.5C3.72386 1.5 3.5 1.72386 3.5 2V3.375C3.5 3.65114 3.27614 3.875 3 3.875C2.72386 3.875 2.5 3.65114 2.5 3.375V2C2.5 1.17157 3.17157 0.5 4 0.5H5.08333C5.35948 0.5 5.58333 0.723858 5.58333 1C5.58333 1.27614 5.35948 1.5 5.08333 1.5H4ZM6.75 1C6.75 0.723858 6.97386 0.5 7.25 0.5H9.41667C9.69281 0.5 9.91667 0.723858 9.91667 1C9.91667 1.27614 9.69281 1.5 9.41667 1.5H7.25C6.97386 1.5 6.75 1.27614 6.75 1ZM11.0833 1C11.0833 0.723858 11.3072 0.5 11.5833 0.5H13.75C14.0261 0.5 14.25 0.723858 14.25 1C14.25 1.27614 14.0261 1.5 13.75 1.5H11.5833C11.3072 1.5 11.0833 1.27614 11.0833 1ZM15.4167 1C15.4167 0.723858 15.6405 0.5 15.9167 0.5H17C17.8284 0.5 18.5 1.17157 18.5 2V3.375C18.5 3.65114 18.2761 3.875 18 3.875C17.7239 3.875 17.5 3.65114 17.5 3.375V2C17.5 1.72386 17.2761 1.5 17 1.5H15.9167C15.6405 1.5 15.4167 1.27614 15.4167 1ZM3 5.625C3.27614 5.625 3.5 5.84886 3.5 6.125V8.875C3.5 9.15114 3.27614 9.375 3 9.375C2.72386 9.375 2.5 9.15114 2.5 8.875V6.125C2.5 5.84886 2.72386 5.625 3 5.625ZM18 5.625C18.2761 5.625 18.5 5.84886 18.5 6.125V8.875C18.5 9.15114 18.2761 9.375 18 9.375C17.7239 9.375 17.5 9.15114 17.5 8.875V6.125C17.5 5.84886 17.7239 5.625 18 5.625ZM3 11.125C3.27614 11.125 3.5 11.3489 3.5 11.625V13C3.5 13.2761 3.72386 13.5 4 13.5H5.08333C5.35947 13.5 5.58333 13.7239 5.58333 14C5.58333 14.2761 5.35947 14.5 5.08333 14.5H4C3.17157 14.5 2.5 13.8284 2.5 13V11.625C2.5 11.3489 2.72386 11.125 3 11.125ZM18 11.125C18.2761 11.125 18.5 11.3489 18.5 11.625V13C18.5 13.8284 17.8284 14.5 17 14.5H15.9167C15.6405 14.5 15.4167 14.2761 15.4167 14C15.4167 13.7239 15.6405 13.5 15.9167 13.5H17C17.2761 13.5 17.5 13.2761 17.5 13V11.625C17.5 11.3489 17.7239 11.125 18 11.125ZM6.75 14C6.75 13.7239 6.97386 13.5 7.25 13.5H9.41667C9.69281 13.5 9.91667 13.7239 9.91667 14C9.91667 14.2761 9.69281 14.5 9.41667 14.5H7.25C6.97386 14.5 6.75 14.2761 6.75 14ZM11.0833 14C11.0833 13.7239 11.3072 13.5 11.5833 13.5H13.75C14.0261 13.5 14.25 13.7239 14.25 14C14.25 14.2761 14.0261 14.5 13.75 14.5H11.5833C11.3072 14.5 11.0833 14.2761 11.0833 14Z" fill="#750D0D"/>
<path fill-rule="evenodd" clip-rule="evenodd" d="M3.47434 2.15812L2.97434 3.65812C2.88702 3.92009 2.60386 4.06167 2.34189 3.97434C2.07991 3.88702 1.93833 3.60386 2.02566 3.34189L2.52566 1.84189L3.47434 2.15812ZM1.65811 6.02566C1.92008 6.11298 2.06166 6.39614 1.97434 6.65812L1.47434 8.15812L0.525658 7.84189L1.02566 6.34189C1.11298 6.07992 1.39614 5.93834 1.65811 6.02566Z" fill="#750D0D"/>
<path fill-rule="evenodd" clip-rule="evenodd" d="M3.49694 13.0552L3.37194 14.1802C3.34145 14.4547 3.09424 14.6524 2.81979 14.6219C2.54533 14.5914 2.34756 14.3442 2.37806 14.0698L2.50306 12.9448L3.49694 13.0552ZM2.68022 15.8781C2.95467 15.9085 3.15244 16.1558 3.12194 16.4302L2.87194 18.6802C2.84145 18.9547 2.59424 19.1524 2.31979 19.1219C2.04533 19.0914 1.84756 18.8442 1.87806 18.5698L2.12806 16.3198C2.15855 16.0453 2.40576 15.8476 2.68022 15.8781ZM2.18022 20.3781C2.45467 20.4085 2.65244 20.6558 2.62194 20.9302L2.49694 22.0552L1.50306 21.9448L1.62806 20.8198C1.65855 20.5453 1.90576 20.3476 2.18022 20.3781Z" fill="#750D0D"/>
<path fill-rule="evenodd" clip-rule="evenodd" d="M17.5119 13.1085L17.7619 14.2335C17.8218 14.503 18.0889 14.673 18.3585 14.6131C18.628 14.5532 18.798 14.2861 18.7381 14.0165L18.4881 12.8915L17.5119 13.1085ZM18.6415 15.8869C18.372 15.9468 18.202 16.2139 18.2619 16.4835L18.7619 18.7335C18.8218 19.003 19.0889 19.173 19.3585 19.1131C19.628 19.0532 19.798 18.7861 19.7381 18.5165L19.2381 16.2665C19.1782 15.997 18.9111 15.827 18.6415 15.8869ZM19.6415 20.3869C19.372 20.4468 19.202 20.7139 19.2619 20.9835L19.5119 22.1085L20.4881 21.8915L20.2381 20.7665C20.1782 20.497 19.9111 20.327 19.6415 20.3869Z" fill="#750D0D"/>
<path fill-rule="evenodd" clip-rule="evenodd" d="M17.5528 2.22361L18.3028 3.72361C18.4263 3.9706 18.7266 4.07071 18.9736 3.94722C19.2206 3.82372 19.3207 3.52339 19.1972 3.2764L18.4472 1.7764L17.5528 2.22361ZM20.0264 6.05279C19.7794 6.17629 19.6793 6.47662 19.8028 6.72361L20.5528 8.22361L21.4472 7.7764L20.6972 6.2764C20.5737 6.02941 20.2734 5.9293 20.0264 6.05279Z" fill="#750D0D"/>
</svg>
