<svg width="24" height="24" viewBox="0 0 24 24" fill="none" xmlns="http://www.w3.org/2000/svg">
<rect width="24" height="24" rx="2" fill="#EDF11D"/>
<path d="M12 16.9875C11.8875 16.9875 11.7812 16.9717 11.6812 16.9402C11.5812 16.9092 11.4875 16.8625 11.4 16.8C9.8375 15.5875 8.672 14.4063 7.9035 13.2563C7.1345 12.1063 6.75 10.975 6.75 9.8625C6.75 8.975 6.9095 8.19675 7.2285 7.52775C7.547 6.85925 7.95625 6.3 8.45625 5.85C8.95625 5.4 9.51875 5.0625 10.1437 4.8375C10.7687 4.6125 11.3875 4.5 12 4.5C12.6125 4.5 13.2313 4.6125 13.8563 4.8375C14.4813 5.0625 15.0438 5.4 15.5438 5.85C16.0438 6.3 16.4533 6.85925 16.7723 7.52775C17.0908 8.19675 17.25 8.975 17.25 9.8625C17.25 10.975 16.8655 12.1063 16.0965 13.2563C15.328 14.4063 14.1625 15.5875 12.6 16.8C12.525 16.8625 12.4345 16.9092 12.3285 16.9402C12.222 16.9717 12.1125 16.9875 12 16.9875ZM12 11.25C12.4125 11.25 12.7658 11.103 13.0598 10.809C13.3533 10.5155 13.5 10.1625 13.5 9.75C13.5 9.3375 13.3533 8.98425 13.0598 8.69025C12.7658 8.39675 12.4125 8.25 12 8.25C11.5875 8.25 11.2345 8.39675 10.941 8.69025C10.647 8.98425 10.5 9.3375 10.5 9.75C10.5 10.1625 10.647 10.5155 10.941 10.809C11.2345 11.103 11.5875 11.25 12 11.25ZM7.5 19.5C7.2875 19.5 7.10925 19.428 6.96525 19.284C6.82175 19.1405 6.75 18.9625 6.75 18.75C6.75 18.5375 6.82175 18.3595 6.96525 18.216C7.10925 18.072 7.2875 18 7.5 18H16.5C16.7125 18 16.8905 18.072 17.034 18.216C17.178 18.3595 17.25 18.5375 17.25 18.75C17.25 18.9625 17.178 19.1405 17.034 19.284C16.8905 19.428 16.7125 19.5 16.5 19.5H7.5Z" fill="#F33030"/>
</svg>
