<svg width="22" height="13" viewBox="0 0 22 13" fill="none" xmlns="http://www.w3.org/2000/svg">
<path d="M20.4142 13H1.58583C1.37758 13 1.17136 12.9606 0.978961 12.8841C0.786559 12.8076 0.611738 12.6954 0.46448 12.554C0.317222 12.4126 0.20041 12.2448 0.120714 12.06C0.0410188 11.8753 0 11.6773 0 11.4773L0 1.52268C0 1.11884 0.167078 0.731541 0.46448 0.445983C0.761881 0.160425 1.16524 0 1.58583 0H20.4142C20.6224 0 20.8286 0.0393855 21.021 0.115907C21.2134 0.192429 21.3883 0.304589 21.5355 0.445983C21.6828 0.587377 21.7996 0.755236 21.8793 0.939976C21.959 1.12472 22 1.32272 22 1.52268V11.4756C22.0001 11.6756 21.9592 11.8737 21.8795 12.0585C21.7999 12.2434 21.6831 12.4113 21.5358 12.5528C21.3886 12.6943 21.2137 12.8066 21.0213 12.8831C20.8288 12.9597 20.6225 13 20.4142 13ZM5.28825 9.95288V5.99215L7.40392 8.53141L9.51867 5.99215V9.95288H11.6343V3.048H9.51867L7.40392 5.58727L5.28825 3.048H3.17167V9.95464L5.28825 9.95288ZM19.4627 6.5H17.3461V3.04712H15.2313V6.5H13.1157L16.2882 10.055L19.4627 6.5Z" fill="#E48F40"/>
</svg>
