<svg width="18" height="18" viewBox="0 0 18 18" fill="none" xmlns="http://www.w3.org/2000/svg">
<path fill-rule="evenodd" clip-rule="evenodd" d="M4.68231 13.5654C7.70552 13.1237 9.78709 13.1617 12.8143 13.5808C13.0335 13.6126 13.2338 13.7226 13.3783 13.8906C13.5227 14.0586 13.6014 14.2731 13.6 14.4946C13.6 14.7066 13.5271 14.9124 13.3955 15.0732C13.1661 15.3535 12.9311 15.6292 12.6906 15.9H13.8571C13.9304 15.8126 14.0041 15.7233 14.0788 15.6328C14.3407 15.3115 14.4837 14.9096 14.4833 14.4951C14.4833 13.6007 13.8306 12.83 12.9353 12.7063C9.83656 12.2775 7.67063 12.2364 4.55467 12.6917C3.65013 12.8238 3 13.6064 3 14.507C3 14.9067 3.13029 15.302 3.37718 15.6222C3.45006 15.7167 3.52205 15.8095 3.5936 15.9005H4.73178C4.50804 15.6326 4.28981 15.3602 4.07723 15.0834C3.95089 14.9177 3.88274 14.7149 3.88333 14.5066C3.88333 14.0309 4.22518 13.6321 4.68231 13.5654Z" fill="current"/>
<path fill-rule="evenodd" clip-rule="evenodd" d="M8.83334 16.7833C13.2239 16.7833 16.7833 13.2239 16.7833 8.83334C16.7833 4.44273 13.2239 0.883334 8.83334 0.883334C4.44273 0.883334 0.883334 4.44273 0.883334 8.83334C0.883334 13.2239 4.44273 16.7833 8.83334 16.7833ZM8.83334 17.6667C13.712 17.6667 17.6667 13.712 17.6667 8.83334C17.6667 3.95468 13.712 0 8.83334 0C3.95468 0 0 3.95468 0 8.83334C0 13.712 3.95468 17.6667 8.83334 17.6667Z" fill="current"/>
<path fill-rule="evenodd" clip-rule="evenodd" d="M9 3.5C7.067 3.5 5.5 5.067 5.5 7C5.5 8.933 7.067 10.5 9 10.5C10.933 10.5 12.5 8.933 12.5 7C12.5 5.067 10.933 3.5 9 3.5ZM4.5 7C4.5 4.51472 6.51472 2.5 9 2.5C11.4853 2.5 13.5 4.51472 13.5 7C13.5 9.48528 11.4853 11.5 9 11.5C6.51472 11.5 4.5 9.48528 4.5 7Z" fill="current"/>
</svg>
