<svg width="20" height="19" viewBox="0 0 20 19" fill="none" xmlns="http://www.w3.org/2000/svg">
<path fill-rule="evenodd" clip-rule="evenodd" d="M0.5 2C0.5 1.17157 1.17157 0.5 2 0.5H18C18.8284 0.5 19.5 1.17157 19.5 2V13C19.5 13.8284 18.8284 14.5 18 14.5H15C14.7239 14.5 14.5 14.7239 14.5 15C14.5 15.2761 14.7239 15.5 15 15.5C15.8284 15.5 16.5 16.1716 16.5 17C16.5 17.8284 15.8284 18.5 15 18.5H5C4.17157 18.5 3.5 17.8284 3.5 17C3.5 16.1716 4.17157 15.5 5 15.5C5.27614 15.5 5.5 15.2761 5.5 15C5.5 14.7239 5.27614 14.5 5 14.5H2C1.17157 14.5 0.5 13.8284 0.5 13V2ZM6.5 15C6.5 15.8284 5.82843 16.5 5 16.5C4.72386 16.5 4.5 16.7239 4.5 17C4.5 17.2761 4.72386 17.5 5 17.5H15C15.2761 17.5 15.5 17.2761 15.5 17C15.5 16.7239 15.2761 16.5 15 16.5C14.1716 16.5 13.5 15.8284 13.5 15C13.5 14.1716 14.1716 13.5 15 13.5H18C18.2761 13.5 18.5 13.2761 18.5 13V2C18.5 1.72386 18.2761 1.5 18 1.5H2C1.72386 1.5 1.5 1.72386 1.5 2V13C1.5 13.2761 1.72386 13.5 2 13.5H5C5.82843 13.5 6.5 14.1716 6.5 15Z" fill="current"/>
<path fill-rule="evenodd" clip-rule="evenodd" d="M6.991 5.56136C7.14119 5.79309 7.0751 6.1027 6.84337 6.25289L4.91929 7.49998L6.84337 8.74707C7.0751 8.89726 7.14119 9.20687 6.991 9.43859C6.84081 9.67032 6.5312 9.73641 6.29947 9.58622L4.05172 8.12934C3.59561 7.83372 3.59561 7.16624 4.05172 6.87061L6.29947 5.41373C6.5312 5.26354 6.84081 5.32964 6.991 5.56136Z" fill="current"/>
<path fill-rule="evenodd" clip-rule="evenodd" d="M13.009 5.56136C12.8588 5.79309 12.9249 6.1027 13.1566 6.25289L15.0807 7.49998L13.1566 8.74707C12.9249 8.89726 12.8588 9.20687 13.009 9.43859C13.1592 9.67032 13.4688 9.73641 13.7005 9.58622L15.9483 8.12934C16.4044 7.83372 16.4044 7.16624 15.9483 6.87061L13.7005 5.41373C13.4688 5.26354 13.1592 5.32964 13.009 5.56136Z" fill="current"/>
<path fill-rule="evenodd" clip-rule="evenodd" d="M11.9624 4.06587C12.2021 4.20288 12.2854 4.5083 12.1484 4.74806L8.71984 10.7481C8.58283 10.9878 8.2774 11.0711 8.03765 10.9341C7.79789 10.7971 7.71459 10.4917 7.85159 10.2519L11.2802 4.25192C11.4172 4.01217 11.7226 3.92887 11.9624 4.06587Z" fill="current"/>
</svg>
