<svg width="20" height="18" viewBox="0 0 20 18" fill="none" xmlns="http://www.w3.org/2000/svg">
<path d="M10 7.23126C10.9581 7.23126 11.7395 8.01737 11.7395 9C11.7395 9.93584 10.9581 10.7313 10 10.7313C9.04186 10.7313 8.26047 9.93584 8.26047 9C8.26047 8.01737 9.04186 7.23126 10 7.23126ZM5.69302 16.4867C6.27907 16.8423 7.56279 16.2995 9.04186 14.8958C8.55814 14.3436 8.08372 13.7447 7.63721 13.1177C6.88758 13.0455 6.14233 12.9331 5.40465 12.7808C4.93023 14.7835 5.10698 16.1592 5.69302 16.4867ZM6.35349 11.115L6.08372 10.6377C5.9814 10.9091 5.87907 11.1805 5.81395 11.4425C6.06512 11.4987 6.34419 11.5455 6.63256 11.5923L6.35349 11.115ZM12.4372 10.4038L13.1907 9L12.4372 7.59624C12.1581 7.10025 11.8605 6.6604 11.5907 6.22056C11.0884 6.19248 10.5581 6.19248 10 6.19248C9.44186 6.19248 8.91163 6.19248 8.4093 6.22056C8.13954 6.6604 7.84186 7.10025 7.56279 7.59624L6.8093 9L7.56279 10.4038C7.84186 10.8998 8.13954 11.3396 8.4093 11.7794C8.91163 11.8075 9.44186 11.8075 10 11.8075C10.5581 11.8075 11.0884 11.8075 11.5907 11.7794C11.8605 11.3396 12.1581 10.8998 12.4372 10.4038ZM10 4.11492C9.82326 4.3208 9.63721 4.53605 9.45116 4.78872H10.5488C10.3628 4.53605 10.1767 4.3208 10 4.11492ZM10 13.8851C10.1767 13.6792 10.3628 13.464 10.5488 13.2113H9.45116C9.63721 13.464 9.82326 13.6792 10 13.8851ZM14.2977 1.51328C13.7209 1.15766 12.4372 1.70045 10.9581 3.10421C11.4419 3.65636 11.9163 4.25529 12.3628 4.88231C13.1256 4.95717 13.8791 5.06947 14.5953 5.21921C15.0698 3.21651 14.893 1.84083 14.2977 1.51328ZM13.6465 6.885L13.9163 7.36228C14.0186 7.09089 14.1209 6.81949 14.186 6.55746C13.9349 6.50131 13.6558 6.45452 13.3674 6.40772L13.6465 6.885ZM14.9954 0.287334C16.3628 1.07344 16.5116 3.14164 15.9349 5.55611C18.2977 6.25799 20 7.41843 20 9C20 10.5816 18.2977 11.742 15.9349 12.4439C16.5116 14.8584 16.3628 16.9266 14.9954 17.7127C13.6372 18.4988 11.786 17.6004 10 15.8878C8.21395 17.6004 6.36279 18.4988 4.99535 17.7127C3.63721 16.9266 3.48837 14.8584 4.06512 12.4439C1.70233 11.742 0 10.5816 0 9C0 7.41843 1.70233 6.25799 4.06512 5.55611C3.48837 3.14164 3.63721 1.07344 4.99535 0.287334C6.36279 -0.498772 8.21395 0.399634 10 2.11222C11.786 0.399634 13.6372 -0.498772 14.9954 0.287334ZM14.7256 9C15.0419 9.70188 15.3209 10.4038 15.5535 11.115C17.507 10.5254 18.6047 9.68316 18.6047 9C18.6047 8.31684 17.507 7.47458 15.5535 6.885C15.3209 7.59624 15.0419 8.29812 14.7256 9ZM5.27442 9C4.95814 8.29812 4.67907 7.59624 4.44651 6.885C2.49302 7.47458 1.39535 8.31684 1.39535 9C1.39535 9.68316 2.49302 10.5254 4.44651 11.115C4.67907 10.4038 4.95814 9.70188 5.27442 9ZM13.6465 11.115L13.3674 11.5923C13.6558 11.5455 13.9349 11.4987 14.186 11.4425C14.1209 11.1805 14.0186 10.9091 13.9163 10.6377L13.6465 11.115ZM10.9581 14.8958C12.4372 16.2995 13.7209 16.8423 14.2977 16.4867C14.893 16.1592 15.0698 14.7835 14.5953 12.7808C13.8791 12.9305 13.1256 13.0428 12.3628 13.1177C11.9163 13.7447 11.4419 14.3436 10.9581 14.8958ZM6.35349 6.885L6.63256 6.40772C6.34419 6.45452 6.06512 6.50131 5.81395 6.55746C5.87907 6.81949 5.9814 7.09089 6.08372 7.36228L6.35349 6.885ZM9.04186 3.10421C7.56279 1.70045 6.27907 1.15766 5.69302 1.51328C5.10698 1.84083 4.93023 3.21651 5.40465 5.21921C6.14233 5.06694 6.88758 4.95448 7.63721 4.88231C8.08372 4.25529 8.55814 3.65636 9.04186 3.10421Z" fill="#69C9DE"/>
</svg>
