<svg width="24" height="29" viewBox="0 0 24 29" fill="none" xmlns="http://www.w3.org/2000/svg">
<path fill-rule="evenodd" clip-rule="evenodd" d="M12.0564 23.4201C11.7861 23.4122 11.5711 23.1907 11.5711 22.9203C11.5711 22.7552 11.5744 22.5921 11.5809 22.4309C11.5483 20.3539 10.5932 16.3942 6.86407 14.1567C6.62728 14.0146 6.5505 13.7075 6.69258 13.4707C6.83465 13.2339 7.14178 13.1571 7.37857 13.2992C10.0706 14.9144 11.4499 17.3271 12.0928 19.4506C13.1228 16.1531 15.4333 14.0592 16.7727 13.2938C17.0125 13.1568 17.3179 13.2401 17.4549 13.4799C17.5919 13.7196 17.5086 14.025 17.2689 14.1621C15.7801 15.0128 12.7738 17.8617 12.5808 22.4538C12.583 22.632 12.5791 22.7979 12.5702 22.9497C12.5543 23.2196 12.3267 23.428 12.0564 23.4201Z" fill="black"/>
<path fill-rule="evenodd" clip-rule="evenodd" d="M12 26.2071C11.7239 26.2071 11.5 26.4309 11.5 26.7071C11.5 26.9832 11.7239 27.2071 12 27.2071C12.2761 27.2071 12.5 26.9832 12.5 26.7071C12.5 26.4309 12.2761 26.2071 12 26.2071ZM10.5 26.7071C10.5 25.8787 11.1716 25.2071 12 25.2071C12.8284 25.2071 13.5 25.8787 13.5 26.7071C13.5 27.5355 12.8284 28.2071 12 28.2071C11.1716 28.2071 10.5 27.5355 10.5 26.7071Z" fill="black"/>
<path fill-rule="evenodd" clip-rule="evenodd" d="M12.0711 23.4203C11.7949 23.4203 11.5711 23.1965 11.5711 22.9203L11.5711 0.707114C11.5711 0.430973 11.7949 0.207115 12.0711 0.207114C12.3472 0.207115 12.5711 0.430973 12.5711 0.707114L12.5711 22.9203C12.5711 23.1965 12.3472 23.4203 12.0711 23.4203Z" fill="black"/>
</svg>
