<svg width="14" height="14" viewBox="0 0 14 14" fill="none" xmlns="http://www.w3.org/2000/svg">
<path fill-rule="evenodd" clip-rule="evenodd" d="M5 2C3.34315 2 2 3.34315 2 5C2 6.65685 3.34315 8 5 8C6.65685 8 8 6.65685 8 5C8 3.34315 6.65685 2 5 2ZM0 5C0 2.23858 2.23858 0 5 0C7.76142 0 10 2.23858 10 5C10 7.76142 7.76142 10 5 10C2.23858 10 0 7.76142 0 5Z" fill="current"/>
<path fill-rule="evenodd" clip-rule="evenodd" d="M7.29289 7.79289C7.68342 7.40237 8.31658 7.40237 8.70711 7.79289L13.2071 12.2929C13.5976 12.6834 13.5976 13.3166 13.2071 13.7071C12.8166 14.0976 12.1834 14.0976 11.7929 13.7071L7.29289 9.20711C6.90237 8.81658 6.90237 8.18342 7.29289 7.79289Z" fill="current"/>
</svg>
