<svg width="13" height="14" viewBox="0 0 13 14" fill="none" xmlns="http://www.w3.org/2000/svg">
<path fill-rule="evenodd" clip-rule="evenodd" d="M5 1.5C3.067 1.5 1.5 3.067 1.5 5C1.5 6.933 3.067 8.5 5 8.5C6.933 8.5 8.5 6.933 8.5 5C8.5 3.067 6.933 1.5 5 1.5ZM0.5 5C0.5 2.51472 2.51472 0.5 5 0.5C7.48528 0.5 9.5 2.51472 9.5 5C9.5 7.48528 7.48528 9.5 5 9.5C2.51472 9.5 0.5 7.48528 0.5 5Z" fill="current"/>
<path fill-rule="evenodd" clip-rule="evenodd" d="M7.64645 8.14645C7.84171 7.95118 8.15829 7.95118 8.35355 8.14645L12.8536 12.6464C13.0488 12.8417 13.0488 13.1583 12.8536 13.3536C12.6583 13.5488 12.3417 13.5488 12.1464 13.3536L7.64645 8.85355C7.45118 8.65829 7.45118 8.34171 7.64645 8.14645Z" fill="current"/>
</svg>
