<svg width="14" height="14" viewBox="0 0 14 14" fill="none" xmlns="http://www.w3.org/2000/svg">
<path fill-rule="evenodd" clip-rule="evenodd" d="M8.5 2C10.1569 2 11.5 3.34315 11.5 5C11.5 6.65685 10.1569 8 8.5 8C6.84315 8 5.5 6.65685 5.5 5C5.5 3.34315 6.84315 2 8.5 2ZM13.5 5C13.5 2.23858 11.2614 0 8.5 0C5.73858 0 3.5 2.23858 3.5 5C3.5 7.76142 5.73858 10 8.5 10C11.2614 10 13.5 7.76142 13.5 5Z" fill="current"/>
<path fill-rule="evenodd" clip-rule="evenodd" d="M6.20711 7.79289C5.81658 7.40237 5.18342 7.40237 4.79289 7.79289L0.292893 12.2929C-0.097631 12.6834 -0.097631 13.3166 0.292893 13.7071C0.683417 14.0976 1.31658 14.0976 1.70711 13.7071L6.20711 9.20711C6.59763 8.81658 6.59763 8.18342 6.20711 7.79289Z" fill="current"/>
</svg>
