<svg width="13" height="14" viewBox="0 0 13 14" fill="none" xmlns="http://www.w3.org/2000/svg">
<path fill-rule="evenodd" clip-rule="evenodd" d="M8.5 1.5C10.433 1.5 12 3.067 12 5C12 6.933 10.433 8.5 8.5 8.5C6.567 8.5 5 6.933 5 5C5 3.067 6.567 1.5 8.5 1.5ZM13 5C13 2.51472 10.9853 0.5 8.5 0.5C6.01472 0.5 4 2.51472 4 5C4 7.48528 6.01472 9.5 8.5 9.5C10.9853 9.5 13 7.48528 13 5Z" fill="current"/>
<path fill-rule="evenodd" clip-rule="evenodd" d="M5.85355 8.14645C5.65829 7.95118 5.34171 7.95118 5.14645 8.14645L0.646447 12.6464C0.451184 12.8417 0.451184 13.1583 0.646447 13.3536C0.841709 13.5488 1.15829 13.5488 1.35355 13.3536L5.85355 8.85355C6.04882 8.65829 6.04882 8.34171 5.85355 8.14645Z" fill="current"/>
</svg>
