<svg width="19" height="12" viewBox="0 0 19 12" fill="none" xmlns="http://www.w3.org/2000/svg">
<path fill-rule="evenodd" clip-rule="evenodd" d="M0.5 1C0.5 0.723858 0.723858 0.5 1 0.5H17.9706C18.2467 0.5 18.4706 0.723858 18.4706 1C18.4706 1.27614 18.2467 1.5 17.9706 1.5H1C0.723858 1.5 0.5 1.27614 0.5 1ZM3.5 5.97056C3.5 5.69442 3.72386 5.47056 4 5.47056H17.9706C18.2467 5.47056 18.4706 5.69442 18.4706 5.97056C18.4706 6.24671 18.2467 6.47056 17.9706 6.47056H4C3.72386 6.47056 3.5 6.24671 3.5 5.97056ZM6 10.9411C6 10.665 6.22386 10.4411 6.5 10.4411H17.9706C18.2467 10.4411 18.4706 10.665 18.4706 10.9411C18.4706 11.2173 18.2467 11.4411 17.9706 11.4411H6.5C6.22386 11.4411 6 11.2173 6 10.9411Z" fill="current"/>
</svg>
