<svg width="14" height="14" viewBox="0 0 14 14" fill="none" xmlns="http://www.w3.org/2000/svg">
<path fill-rule="evenodd" clip-rule="evenodd" d="M7 13C10.3137 13 13 10.3137 13 7C13 3.68629 10.3137 1 7 1C3.68629 1 1 3.68629 1 7C1 10.3137 3.68629 13 7 13ZM7 14C10.866 14 14 10.866 14 7C14 3.13401 10.866 0 7 0C3.13401 0 0 3.13401 0 7C0 10.866 3.13401 14 7 14Z" fill="current"/>
<path fill-rule="evenodd" clip-rule="evenodd" d="M11.3716 4.66552C11.5564 4.87078 11.5397 5.18692 11.3345 5.37165L6.33448 9.87165C6.13682 10.0495 5.83449 10.0416 5.64645 9.85356L3.14645 7.35356C2.95118 7.1583 2.95118 6.84171 3.14645 6.64645C3.34171 6.45119 3.65829 6.45119 3.85355 6.64645L6.01812 8.81102L10.6655 4.62836C10.8708 4.44363 11.1869 4.46027 11.3716 4.66552Z" fill="current"/>
</svg>
