<svg width="24" height="24" viewBox="0 0 24 24" fill="none" xmlns="http://www.w3.org/2000/svg">
<path d="M5.13 10.71H8.87L6.22 8.05999C5.21 8.05999 4.39 7.23999 4.39 6.21999C4.39 5.73464 4.58281 5.26917 4.926 4.92598C5.26919 4.58279 5.73466 4.38999 6.22 4.38999C7.24 4.38999 8.06 5.20999 8.06 6.21999L10.71 8.86999V5.12999C10.3686 4.78543 10.1771 4.32002 10.1771 3.83499C10.1771 3.34996 10.3686 2.88455 10.71 2.53999C10.8784 2.36886 11.0792 2.23295 11.3007 2.14018C11.5222 2.04741 11.7599 1.99963 12 1.99963C12.2401 1.99963 12.4778 2.04741 12.6993 2.14018C12.9208 2.23295 13.1216 2.36886 13.29 2.53999C14 3.24999 14 4.40999 13.29 5.12999V8.86999L15.95 6.21999C15.95 5.73464 16.1428 5.26917 16.486 4.92598C16.8292 4.58279 17.2947 4.38999 17.78 4.38999C18.2654 4.38999 18.7308 4.58279 19.074 4.92598C19.4172 5.26917 19.61 5.73464 19.61 6.21999C19.61 7.23999 18.79 8.05999 17.78 8.05999L15.13 10.71H18.87C19.2146 10.3686 19.68 10.1771 20.165 10.1771C20.65 10.1771 21.1154 10.3686 21.46 10.71C22.18 11.42 22.18 12.58 21.46 13.29C20.75 14 19.59 14 18.87 13.29H15.13L17.78 15.95C18.79 15.95 19.61 16.76 19.61 17.78C19.61 18.2653 19.4172 18.7308 19.074 19.074C18.7308 19.4172 18.2654 19.61 17.78 19.61C16.76 19.61 15.95 18.79 15.95 17.78L13.29 15.13V18.87C14 19.59 14 20.75 13.29 21.46C12.58 22.18 11.42 22.18 10.71 21.46C10.3686 21.1154 10.1771 20.65 10.1771 20.165C10.1771 19.68 10.3686 19.2146 10.71 18.87V15.13L8.06 17.78C8.06 18.79 7.24 19.61 6.22 19.61C5.73466 19.61 5.26919 19.4172 4.926 19.074C4.58281 18.7308 4.39 18.2653 4.39 17.78C4.39 17.2946 4.58281 16.8292 4.926 16.486C5.26919 16.1428 5.73466 15.95 6.22 15.95L8.87 13.29H5.13C4.41 14 3.25 14 2.54 13.29C2.36887 13.1216 2.23296 12.9208 2.14019 12.6993C2.04743 12.4778 1.99965 12.2401 1.99965 12C1.99965 11.7599 2.04743 11.5222 2.14019 11.3007C2.23296 11.0792 2.36887 10.8784 2.54 10.71C2.88456 10.3686 3.34998 10.1771 3.835 10.1771C4.32003 10.1771 4.78544 10.3686 5.13 10.71Z" fill="#40CDEC"/>
</svg>
