<svg width="19" height="18" viewBox="0 0 19 18" fill="none" xmlns="http://www.w3.org/2000/svg">
<path fill-rule="evenodd" clip-rule="evenodd" d="M0 2.5C0 1.11929 1.11929 0 2.5 0H13.5C14.8807 0 16 1.11929 16 2.5V6.5C16 7.88071 14.8807 9 13.5 9H2.5C1.11929 9 0 7.88071 0 6.5V2.5ZM2.5 1C1.67157 1 1 1.67157 1 2.5V6.5C1 7.32843 1.67157 8 2.5 8H13.5C14.3284 8 15 7.32843 15 6.5V2.5C15 1.67157 14.3284 1 13.5 1H2.5Z" fill="current"/>
<path fill-rule="evenodd" clip-rule="evenodd" d="M15 4.5C15 4.22386 15.2239 4 15.5 4H17.5C18.3284 4 19 4.67157 19 5.5V9.89067C19 10.6487 18.4345 11.2876 17.682 11.3796L8.43932 12.5096C8.18851 12.5402 8 12.7532 8 13.0059V17.5C8 17.7761 7.77614 18 7.5 18C7.22386 18 7 17.7761 7 17.5V13.0059C7 12.2478 7.56554 11.609 8.31797 11.517L17.5607 10.387C17.8115 10.3563 18 10.1434 18 9.89067V5.5C18 5.22386 17.7761 5 17.5 5H15.5C15.2239 5 15 4.77614 15 4.5Z" fill="current"/>
</svg>
