<svg width="21" height="21" viewBox="0 0 21 21" fill="none" xmlns="http://www.w3.org/2000/svg">
<path fill-rule="evenodd" clip-rule="evenodd" d="M19.3594 0H1.64062C0.734508 0 0 0.734508 0 1.64062V19.3594C0 20.2655 0.734508 21 1.64062 21H19.3594C20.2655 21 21 20.2655 21 19.3594V1.64062C21 0.734508 20.2655 0 19.3594 0ZM12.9034 18.5145V16.5725C13.2649 16.8678 13.6576 17.0893 14.0816 17.237C14.5055 17.3847 14.9335 17.4585 15.3657 17.4585C15.6192 17.4585 15.8405 17.4363 16.0296 17.3917C16.2187 17.3472 16.3767 17.2856 16.5034 17.2067C16.6301 17.1278 16.7247 17.0347 16.787 16.9275C16.8491 16.8212 16.8813 16.7009 16.8805 16.5786C16.8805 16.4086 16.8307 16.2569 16.7309 16.1234C16.6312 15.9899 16.4951 15.8665 16.3226 15.7532C16.1501 15.6399 15.9455 15.5307 15.7086 15.4255C15.4552 15.3134 15.1995 15.2061 14.9418 15.1038C14.2436 14.8206 13.7232 14.4747 13.3803 14.0661C13.0374 13.6574 12.866 13.1639 12.866 12.5853C12.866 12.1322 12.9595 11.7428 13.1465 11.4171C13.3335 11.0914 13.5881 10.8234 13.9101 10.6129C14.2322 10.4025 14.6052 10.2478 15.0291 10.1487C15.453 10.0496 15.9018 10 16.3756 10C16.841 10 17.2535 10.0273 17.613 10.0819C17.9724 10.1365 18.3039 10.2205 18.6073 10.3338V12.1483C18.453 12.0447 18.2892 11.9553 18.1179 11.8814C17.9413 11.8044 17.759 11.7405 17.5725 11.6902C17.3855 11.6395 17.1995 11.6021 17.0145 11.5779C16.8296 11.5536 16.6541 11.5415 16.4878 11.5415C16.2592 11.5415 16.0514 11.5627 15.8644 11.6052C15.6774 11.6477 15.5195 11.7073 15.3907 11.7843C15.2619 11.8611 15.1621 11.9531 15.0914 12.0604C15.0208 12.1676 14.9855 12.2879 14.9855 12.4214C14.9855 12.5671 15.0249 12.6975 15.1039 12.8129C15.1828 12.9282 15.2951 13.0374 15.4405 13.1406C15.5859 13.2438 15.7626 13.3449 15.9704 13.444C16.1782 13.5432 16.413 13.6453 16.6748 13.7505C17.0322 13.8962 17.3533 14.0509 17.638 14.2147C17.9226 14.3786 18.1668 14.5637 18.3704 14.7701C18.5722 14.9736 18.7311 15.2138 18.8379 15.4771C18.9459 15.7421 19 16.0506 19 16.4026C19 16.8881 18.9055 17.2957 18.7164 17.6254C18.5272 17.9552 18.2706 18.2222 17.9465 18.4265C17.6224 18.6308 17.2452 18.7775 16.8151 18.8665C16.385 18.9555 15.9309 19 15.453 19C14.9626 19 14.4961 18.9596 14.0535 18.8786C13.6109 18.7977 13.2275 18.6764 12.9034 18.5145ZM12.1443 11.7397H9.58117V18.8594H7.55067V11.7397H5V10.1406H12.1443V11.7397Z" fill="#2F7FD7"/>
</svg>
