<svg width="21" height="20" viewBox="0 0 21 20" fill="none" xmlns="http://www.w3.org/2000/svg">
<path fill-rule="evenodd" clip-rule="evenodd" d="M20.4043 1.7059C20.5214 1.86687 20.5319 2.08196 20.431 2.25352L10.431 19.2535C10.3401 19.4079 10.1736 19.502 9.99447 19.5C9.81532 19.498 9.65093 19.4003 9.56353 19.2439L0.0635297 2.24392C-0.0316523 2.0736 -0.0190599 1.86346 0.0957815 1.70572C0.210623 1.54798 0.406732 1.47146 0.59806 1.50972L5.59806 2.50972C5.86884 2.56388 6.04445 2.82729 5.99029 3.09807C5.93614 3.36885 5.67272 3.54446 5.40194 3.4903L1.46565 2.70304L10.0111 17.995L18.9861 2.73753L15.6085 3.48811C15.3389 3.54801 15.0718 3.37805 15.0119 3.10848C14.952 2.83891 15.122 2.57182 15.3915 2.51192L19.8915 1.51192C20.0858 1.46874 20.2873 1.54493 20.4043 1.7059Z" fill="current"/>
<path fill-rule="evenodd" clip-rule="evenodd" d="M14.4813 0.163928C14.599 0.293532 14.6403 0.475229 14.5902 0.642967L13.4901 4.33026L14.9101 4.07066C15.0997 4.03599 15.2924 4.11345 15.4053 4.26975C15.5182 4.42604 15.5312 4.63331 15.4387 4.80246L10.5498 13.74C10.4353 13.9493 10.1887 14.0486 9.96109 13.977C9.73344 13.9054 9.58813 13.6829 9.61408 13.4456L9.98213 10.0814L8.88917 10.3312C8.7275 10.3681 8.55803 10.3225 8.43675 10.2094C8.31547 10.0963 8.25817 9.9304 8.28378 9.76655L8.6195 7.61848L7.08992 7.89811C6.9306 7.92724 6.76703 7.87738 6.65104 7.76434C6.53505 7.6513 6.48099 7.48908 6.506 7.32905L7.39489 1.64155C7.42737 1.43376 7.5864 1.26851 7.79279 1.22808L14.015 0.00933426C14.1868 -0.0243127 14.3637 0.0343239 14.4813 0.163928ZM8.3288 2.1421L7.60274 6.78779L9.13231 6.50816C9.29164 6.47904 9.4552 6.52889 9.57119 6.64193C9.68719 6.75497 9.74124 6.91719 9.71623 7.07722L9.38572 9.19195L10.4442 8.95008C10.6019 8.91404 10.7673 8.95652 10.8881 9.06411C11.0089 9.17169 11.0702 9.33108 11.0526 9.49189L10.8823 11.0483L14.0578 5.24304L12.8677 5.46061C12.6966 5.49189 12.5216 5.43201 12.4055 5.3025C12.2894 5.173 12.2489 4.99247 12.2987 4.8258L13.3955 1.14968L8.3288 2.1421Z" fill="current"/>
</svg>
